<?xml version="1.0" encoding="UTF-8"?>
<svg xmlns="http://www.w3.org/2000/svg" viewBox="0.33 0 491.6 59.67" width="491.6" height="59.67">

            <title>Rotterdam school of Management, Erasmus University logo</title>
            <g fill="#003C28" fill-rule="evenodd">
                <path d="M102.7 36.79c-.62 0-4.67 1.63-6.84 1.63-.7 0-1.25-.28-1.25-.75 0-2.2 7.6-5.6 7.6-8.19 0-2.29-2.16-2.96-3.45-2.96-3.03 0-6.08 1.75-6.66 2.15-.6.42.5 2.38 1.27 2.04.7-.32 3.33-1.8 4.75-1.8.68 0 1 .31 1 .7 0 1.44-7.96 5.4-7.96 9.02 0 .86.81 2.14 3.4 2.14 4.05 0 8.87-1.84 8.87-3.4 0-.26-.33-.58-.72-.58M135.91 19.23c1.64 0 2.99.57 2.99 2.17 0 4.49-5.88-1.91-12.4 18.8-.43 1.35-.85 2.82-1.29 4.4-.15.53-.67.81-1.34.81-.66 0-1.55-.57-1.55-1.38 0-1.23 1.78-5.94 1.78-7.44 0-.92-.43-1.09-.73-1.09-1.1 0-2.43 2.07-4.54 2.07-3.83 0-3.33-2.89-4.93-2.89-1.82 0-1.18 3.8-4.22 3.8-2.45 0-3.6-1.52-3.6-3.03 0-3.31 5-6.46 8.02-6.46 4.49 0 1.55 6.2 4.76 6.2 1.77 0 9.99-5.17 12.91-13.12a4.72 4.72 0 014.14-2.84zM111.88 31.9c-1.02 0-3.03 1.59-3.03 2.77 0 .3.1.46.54.46.93 0 3.1-2.37 3.1-2.8 0-.27-.26-.43-.61-.43z" opacity=".6"/>
                <path d="M176.55 27.51c-4.2 0-4.45 2.38-5.03 4.48-.63 2.32-5.14 2.98-7.6 2.98s-2.43-.66-2.96-3.09c-.49-2.29-1.48-2.86-2.8-2.86-.96 0-1.93.9-3.01 1.87-1.88 1.69-3.72 3.98-4.72 3.98-.84 0-1.5-.96-1.5-1.92 0-.88.7-1.24.7-2.22 0-.68-.38-2.01-1.42-2.01-1.56 0-4.03 2.64-4.46 3.06-1.28 1.24-3.06 3.7-4.9 3.7-2.74 0-.24-4.14-3.52-4.14a2.4 2.4 0 00-2.4 2.24c0 1.26.84 1.94 1.76 2.9 1.05 1.1 1.85 2.03 3.28 2.03 4.26 0 5.22-4.53 7.42-4.53.72 0 1.06.64 1.14 1.25.2 1.55 1.9 2.28 3.88 2.28 3.74 0 3.82-3.2 6.14-3.2 3.15 0 2.57 3.6 6.07 3.6 1.4 0 1.63-.23 3.74-.5 2.57-.32 4.73-.48 5.9-1.15 2.64-1.53 1.25-6.06 4-6.06.93 0 1.65.61 1.65 2.1 0 1.86-.67 6.18-10.2 10.9-.98.51-1.65 1.13-1.65 1.67 0 .56.59.88 1.15.88 2.14 0 13.78-6.09 13.78-13.03 0-3.99-1.8-5.2-4.44-5.2M90.06 7.55c3.44 0 8.06 1.2 8.06-.42 0-2.15-6.73-2.5-8.6-2.49-7.17 0-20.43 4.62-34.44 24.28-9.56 2.65-42.48 12.61-42.48 20 0 1.51 2.33 3.65 5.68 3.65 1.61 0 2.83-.59 2.83-1.47 0-1.7-4.18-1.61-4.18-2.83 0-3.3 19.21-10.45 35.79-15.3-6.38 11.9-2.83 26.7 12.2 26.7 7.15 0 14.27-4.27 18.63-6.86.85-.5.2-1.76-.8-1.26-4.48 2.27-10.28 5.15-16.4 5.15-16.17 0-14.33-15.7-8.84-25.1 4.78-1.3 12-3 19.55-3 5.61 0 7.09 2.08 8.18 2.44 1.1.35 1.83-.51 1.14-1.44-1.12-1.5-3.19-4.05-10.66-4.05-3.2-.04-9.6.76-15.83 2.16C66.75 18.7 77.94 7.55 90.06 7.55" opacity=".6"/>
                <path d="M231.8 43.35c0 .57-.2 1.1-.6 1.6-.4.48-.89.73-1.46.73-.43 0-.77-.11-1.01-.33-.25-.23-.37-.5-.37-.81 0-.93 1.02-1.4 3.05-1.4h.39v.2zm-1.56-5.23a6.13 6.13 0 00-2.19.38 6.47 6.47 0 00-1.21.6l-.17.12.86 1.57.34-.2a4.5 4.5 0 012.16-.64c1.17 0 1.75.52 1.75 1.56v.12h-.3a16.33 16.33 0 00-1.71.11c-.35.04-.7.1-1.04.2-.34.08-.67.2-.99.33-.33.15-.62.33-.85.53a2.37 2.37 0 00-.81 1.84c0 .85.3 1.52.9 2.02.61.5 1.34.74 2.2.74.38 0 .74-.05 1.08-.16.33-.1.6-.24.8-.4a4.19 4.19 0 00.8-.84c.07-.11.1-.17.08-.17h.04l-.04.63v.73h2.1v-5.54c0-1.12-.34-1.99-1-2.6a3.96 3.96 0 00-2.8-.93zM236.66 26.52c.23 0 .46-.01.69-.05V24.5l-.41.03c-.14 0-.29 0-.43-.03a1.87 1.87 0 01-.91-.43 1.41 1.41 0 01-.32-.5 1.97 1.97 0 01-.13-.74v-3.51h2.06v-1.8h-2.06v-2.6h-2.2v2.6h-1.24v1.8h1.18v3.8c0 .38.04.76.14 1.13a2.64 2.64 0 00.94 1.47c.21.17.43.3.67.42a4.88 4.88 0 002.02.38M225.59 24.64c-.73 0-1.34-.26-1.85-.78a2.71 2.71 0 01-.76-1.98c0-.8.26-1.47.76-1.99s1.12-.78 1.85-.78c.7 0 1.36.28 1.83.78.5.52.76 1.19.76 1.99s-.26 1.47-.76 1.98c-.47.5-1.14.79-1.83.78m4.15-.36c.43-.71.65-1.51.65-2.4a4.54 4.54 0 00-2.4-4.05c-.74-.4-1.57-.6-2.42-.6-.84 0-1.67.2-2.41.6a4.48 4.48 0 00-2.39 4.05 4.55 4.55 0 002.39 4.05c.73.4 1.54.59 2.43.59.88 0 1.69-.2 2.41-.59a4.45 4.45 0 001.74-1.65M335.12 19.9c.51-.53 1.12-.79 1.85-.79.7 0 1.36.28 1.83.78.5.52.76 1.19.76 1.99s-.25 1.47-.76 1.98c-.47.5-1.14.79-1.83.78-.73 0-1.34-.26-1.85-.78a2.71 2.71 0 01-.75-1.98c0-.8.25-1.47.75-1.99m-.58 6.04c.73.4 1.54.59 2.43.59.88 0 1.69-.2 2.42-.59a4.56 4.56 0 002.38-4.06 4.54 4.54 0 00-2.4-4.04c-.74-.4-1.57-.6-2.42-.6-.84 0-1.67.2-2.4.6a4.48 4.48 0 00-2.4 4.05 4.55 4.55 0 002.4 4.05M276.25 42.92a8.07 8.07 0 00-1.79-.95l-.85-.34a2.34 2.34 0 01-.63-.38c-.17-.14-.25-.3-.25-.45a.65.65 0 01.34-.6c.22-.13.5-.2.81-.2a3.58 3.58 0 012.22.76l.84-1.63-.12-.1a2 2 0 00-.37-.26 4.45 4.45 0 00-1.45-.54c-.35-.07-.72-.1-1.1-.1-1 0-1.83.22-2.48.7-.64.46-.97 1.1-.97 1.9-.01.7.31 1.36.87 1.8.27.21.56.4.86.55.31.15.62.3.93.42.3.1.58.23.86.35.23.1.45.23.63.39.16.15.24.3.24.48.01.24-.12.47-.34.59-.23.14-.5.21-.84.21a3.78 3.78 0 01-2.47-.97l-1.02 1.55.14.13c.14.13.29.24.45.33a4.8 4.8 0 001.7.7c.39.1.8.14 1.22.14 1.04 0 1.88-.25 2.5-.76.63-.51.95-1.14.95-1.9a2.26 2.26 0 00-.88-1.82M243.14 24.5a1.87 1.87 0 01-.91-.43 1.41 1.41 0 01-.32-.5 1.97 1.97 0 01-.13-.74v-3.51h2.06v-1.8h-2.06v-2.6h-2.2v2.6h-1.24v1.8h1.18v3.8c0 .38.04.76.14 1.13a2.64 2.64 0 00.94 1.47c.2.17.43.3.67.42a4.88 4.88 0 002.7.33V24.5l-.4.03a3.1 3.1 0 01-.43-.03M270.33 46.24zM255.32 38.12c-.64 0-1.28.19-1.82.54-.55.37-.96.8-1.21 1.33h-.04c-.37-1.25-1.24-1.87-2.59-1.87-.63 0-1.24.2-1.75.57-.52.37-.9.81-1.14 1.32h-.04l.04-.63v-1.04h-2.13v9.06h2.21v-3.98c0-.48.04-.86.11-1.16.15-.61.41-1.1.79-1.5.38-.38.84-.57 1.39-.57.18 0 .36.03.53.1a.9.9 0 01.35.25c.09.11.16.25.2.4.04.16.08.32.1.48l.02.57v5.41h2.21v-3.98c0-.5.03-.89.1-1.17.14-.6.4-1.1.78-1.49.37-.38.83-.57 1.37-.57.47 0 .8.15.97.46.17.31.25.76.25 1.34v5.41h2.21v-5.83c0-2.3-.97-3.45-2.9-3.45M266.3 42.61c0 .85-.23 1.58-.67 2.17-.45.6-1.06.89-1.82.89-.52 0-.88-.16-1.08-.47-.2-.32-.3-.78-.3-1.38v-5.36h-2.2v5.82c0 2.3 1.02 3.45 3.08 3.45a3.3 3.3 0 001.9-.55c.54-.38.94-.82 1.17-1.34h.04l-.03.65v1.03h2.12v-9.07h-2.21v4.16zM260.55 16.94l-.4-.03c-.63-.01-1.25.23-1.73.66-.5.44-.86 1-1.06 1.68h-.04l.04-.63v-1.58h-2.11v9.15h2.2v-3.63c0-.57.06-1.06.19-1.5.12-.42.32-.79.6-1.09.23-.27.52-.49.85-.63.3-.13.62-.2.95-.2.17 0 .34.02.51.04v-2.24zM241.78 42.92a8.17 8.17 0 00-1.79-.95l-.86-.34a2.34 2.34 0 01-.63-.38c-.16-.14-.24-.3-.24-.45a.66.66 0 01.33-.6c.22-.13.5-.2.82-.2a3.63 3.63 0 012.21.76l.84-1.63-.12-.1a5.62 5.62 0 00-.96-.55 5.47 5.47 0 00-1.95-.36c-1 0-1.83.23-2.48.7-.65.47-.97 1.1-.97 1.9-.01.7.3 1.37.87 1.82.27.2.55.38.86.54.3.15.62.3.93.42.29.1.57.23.86.35.23.1.44.23.63.39.16.15.24.3.24.48 0 .24-.13.47-.34.59-.23.14-.51.21-.85.21a3.82 3.82 0 01-2.46-.97l-1.03 1.55.15.13c.14.13.28.24.44.33a4.77 4.77 0 001.7.7c.4.1.81.14 1.22.14 1.05 0 1.88-.25 2.51-.76.63-.51.94-1.14.94-1.9a2.26 2.26 0 00-.87-1.82M212.83 42.05h4.31v-1.98h-4.31v-3.3h5.34v-1.96h-7.67V47.4h7.95v-1.96h-5.62zM6.97 9.66H3.83V3.44h2.66C9.23 3.44 10 4.62 10 6.52c0 1.99-1.17 3.14-3.04 3.14m3.34 2.16v-.06c2.03-.84 3.25-3.05 3.25-5.43 0-2.64-1.22-4.54-3.14-5.44C9.58.5 8.62.33 6.54.33H.34v19.9h3.49V12.8h3.36l3.82 7.42h3.9l-3.95-7.42a4.9 4.9 0 00-.65-.98M264.79 19.67c.43-.51.97-.76 1.61-.76.45-.01.9.13 1.25.41.34.27.6.63.76 1.04.16.42.24.87.24 1.36 0 .95-.22 1.67-.65 2.15-.44.49-.97.73-1.61.73-.67 0-1.21-.26-1.63-.79a3.24 3.24 0 01-.62-2.07c0-.88.22-1.57.65-2.07m1.09 6.85a3.42 3.42 0 001.9-.55c.19-.13.37-.3.52-.47.17-.18.27-.3.3-.38l.1-.17h.04l-.04.6v.75h2.13V13.6h-2.25v4c0 .18 0 .35.02.52h-.03l-.08-.12a3.18 3.18 0 00-.75-.63 2.8 2.8 0 00-.75-.3 4.23 4.23 0 00-1.02-.11c-1.2 0-2.2.43-2.95 1.3a5.1 5.1 0 00-1.14 3.48c0 1.43.36 2.58 1.09 3.46.72.88 1.7 1.32 2.9 1.32M33.65 20.06zM20.92 5.62c0-1.38 1.3-2.34 2.96-2.34a7.2 7.2 0 014.35 1.7l1.55-2.89S27.78 0 23.9 0c-3.77 0-6.59 2.42-6.59 5.67 0 6.01 9.28 5.4 9.28 8.9 0 1.6-1.36 2.37-2.86 2.37-2.76 0-4.9-2.06-4.9-2.06l-1.93 2.67s2.4 2.67 6.78 2.67c4.1 0 6.48-2.62 6.48-5.73 0-6.25-9.25-5.4-9.25-8.87M277.88 22.46c0 .58-.2 1.1-.6 1.6-.4.5-.9.74-1.46.74-.44 0-.78-.11-1.02-.34-.24-.22-.36-.5-.36-.8 0-.94 1.01-1.4 3.04-1.4h.4v.2zm-1.56-5.22a6.13 6.13 0 00-2.19.38 6.73 6.73 0 00-1.22.6l-.16.11.85 1.58.34-.21a4.54 4.54 0 012.17-.64c1.17 0 1.75.52 1.75 1.56v.13h-.3a12.12 12.12 0 00-2.76.3c-.33.08-.66.2-.98.34-.34.15-.62.33-.86.53a2.36 2.36 0 00-.8 1.83c0 .85.3 1.53.9 2.02.6.5 1.34.75 2.2.75.38 0 .74-.06 1.07-.16.34-.1.6-.24.8-.4a4.11 4.11 0 00.81-.85l.08-.16h.03l-.03.63v.73h2.09v-5.54c0-1.12-.33-2-1-2.6a3.96 3.96 0 00-2.8-.93zM248.3 19.43a2 2 0 011.38-.49c.5 0 .9.16 1.22.49.32.32.49.77.5 1.35h-3.8c.1-.57.33-1.02.7-1.35m-.8 6.45a4.8 4.8 0 002.49.64 5.39 5.39 0 003.34-1.14l.16-.14-.84-1.57-.12.1-.37.24c-.16.1-.33.19-.53.29a3.4 3.4 0 01-1.5.33c-.68 0-1.27-.2-1.76-.61-.5-.41-.78-.99-.85-1.73h6.02l.05-.84a5 5 0 00-.43-2.13 3.5 3.5 0 00-1.32-1.51c-.6-.38-1.3-.57-2.11-.57a4.2 4.2 0 00-3.19 1.3 4.64 4.64 0 00-1.23 3.34c-.01.8.18 1.6.55 2.31.38.71.95 1.3 1.64 1.7M195.25 50.39h1.32V12.93h-1.32zM48.63.33l-3.85 9.83c-.44 1.18-.97 2.92-.97 2.92h-.05s-.56-1.74-1-2.92L38.91.33h-3.82l-1.6 19.9h3.56l.83-11.13c.09-1.32.03-3.11.03-3.11h.06s.6 1.96 1.08 3.1l3.16 7.71h3.13l3.18-7.7c.47-1.15 1.05-3.08 1.05-3.08h.06s-.06 1.76.03 3.08l.83 11.12h3.54L52.45.33h-3.82zM324.4 22.04c0-.45.05-.84.14-1.17.16-.54.47-1.01.9-1.36.42-.35.91-.52 1.48-.52.53 0 .9.16 1.1.47.2.31.3.77.3 1.37v5.36h2.18v-5.82c0-2.3-1.02-3.44-3.05-3.44-.72 0-1.34.17-1.88.53a3.3 3.3 0 00-1.17 1.26h-.03l.03-.76v-4.37h-2.19v12.6h2.2v-4.15zM223.62 38.78c-.5.44-.86 1-1.07 1.7h-.03l.03-.65v-1.58h-2.1v9.15h2.18v-3.62c0-.57.07-1.07.2-1.5.13-.43.33-.8.6-1.1.23-.26.53-.48.85-.63.3-.12.63-.19.95-.19.17 0 .35.02.52.04v-2.24l-.4-.04c-.64 0-1.26.23-1.73.66M216.14 18.98a1.9 1.9 0 01-1.41.52h-2v-3.94h1.68c.83 0 1.4.16 1.74.5.34.32.5.8.5 1.46 0 .62-.17 1.1-.51 1.46m.7 1.89v-.04c.64-.26 1.15-.7 1.52-1.34.37-.64.57-1.36.56-2.1a4 4 0 00-.53-2.12 3.37 3.37 0 00-2.42-1.6c-.36-.05-.87-.08-1.52-.08h-3.95v12.6h2.23v-4.7h2.13l2.43 4.7h2.49l-2.52-4.7c-.16-.3-.3-.5-.41-.62M223.26 21.71zM468.36 20.78c.1-.57.35-1.02.71-1.35a2 2 0 011.38-.49c.5 0 .9.16 1.22.49.32.32.5.77.5 1.35h-3.8zm4.25-2.97c-.6-.38-1.3-.57-2.11-.57a4.2 4.2 0 00-3.18 1.3 4.64 4.64 0 00-1.24 3.34c-.01.8.18 1.6.56 2.31.37.71.94 1.3 1.64 1.7a5.35 5.35 0 005.39-.2l.44-.3.15-.14-.84-1.58-.11.1-.37.24c-.16.1-.34.19-.54.29a3.32 3.32 0 01-1.5.33c-.68 0-1.26-.2-1.76-.61a2.4 2.4 0 01-.84-1.73h6.02l.04-.84c0-.8-.14-1.5-.43-2.13a3.5 3.5 0 00-1.32-1.51zM379.16 13.6a4.66 4.66 0 00-1.88.37 2.77 2.77 0 00-1.5 1.84c-.09.34-.13.7-.13 1.12v.4h-1.06v1.78h1.06v7.08h2.14V19.1h1.84v-1.78h-1.84v-.35c0-.98.55-1.47 1.65-1.47.15 0 .3.01.45.04v-1.9l-.08-.02a6.1 6.1 0 00-.65-.04M394.73 13.6l-2.43 6.22c-.18.5-.39 1.11-.6 1.85h-.04l-.63-1.85-2.42-6.23h-2.4l-1.02 12.6h2.25l.53-7.05a15.83 15.83 0 00.01-1.96h.04l.1.33a26.72 26.72 0 00.58 1.63l1.98 4.88h1.97l2-4.88c.25-.63.47-1.29.67-1.94h.03l-.01.3a11.17 11.17 0 000 .79c0 .28 0 .57.03.85l.52 7.05h2.23l-1-12.6h-2.4zM405.83 22.46c0 .58-.2 1.1-.6 1.6-.4.5-.89.74-1.45.74-.44 0-.78-.11-1.02-.34-.24-.22-.36-.5-.36-.8 0-.94 1.01-1.4 3.04-1.4h.4v.2zm-1.56-5.22a6.13 6.13 0 00-2.18.38 6.75 6.75 0 00-1.22.6l-.17.11.86 1.58.34-.21a4.54 4.54 0 012.16-.64c1.17 0 1.76.52 1.76 1.56v.13h-.3a12.13 12.13 0 00-2.76.3c-.34.08-.67.2-.98.34-.34.15-.63.33-.86.53a2.38 2.38 0 00-.81 1.83c0 .85.3 1.53.9 2.02.61.5 1.34.75 2.2.75.39 0 .75-.06 1.08-.16.33-.1.6-.24.8-.4a4.18 4.18 0 00.8-.85c.07-.1.1-.16.08-.16h.04l-.04.63v.73h2.1v-5.54c0-1.12-.34-2-1-2.6a3.96 3.96 0 00-2.8-.93zM369.96 23.86c-.47.5-1.14.79-1.83.78-.73 0-1.34-.26-1.84-.78a2.71 2.71 0 01-.76-1.98c0-.8.25-1.47.76-1.99.5-.52 1.11-.78 1.84-.78.7 0 1.36.28 1.83.78.5.52.76 1.19.76 1.99s-.25 1.47-.76 1.98m.58-6.03c-.75-.4-1.58-.6-2.43-.6-.84 0-1.67.2-2.4.6a4.48 4.48 0 00-2.4 4.05 4.56 4.56 0 002.4 4.05c.72.4 1.53.59 2.42.59.88 0 1.69-.2 2.42-.59a4.45 4.45 0 002.38-4.05 4.54 4.54 0 00-2.4-4.05M360.1 43.77c-.1.32-.2.72-.3 1.2h-.03l-.05-.2-.13-.52c-.05-.2-.1-.38-.16-.52l-1.9-5.28h-2.5l3.78 9.02-.33.8c-.16.4-.38.7-.66.9-.27.19-.57.29-.9.29-.33 0-.67-.13-1-.38l-.74 1.7.23.15c.15.1.38.2.7.3a3.32 3.32 0 002.88-.44c.56-.4 1-1 1.3-1.8l4.02-10.54h-2.45l-1.77 5.32zM355.91 26.24c.22.1.46.19.7.23.47.07.94.07 1.4 0V24.5l-.31.02c-.3 0-.52-.09-.67-.27-.14-.17-.21-.5-.21-.97v-9.37h-2.12v9.7c-.01.44.05.88.16 1.3.12.36.26.64.43.84.17.2.38.37.62.48M355.19 38.29zM491.53 24.53a1.87 1.87 0 01-1.34-.46 1.41 1.41 0 01-.32-.5 1.97 1.97 0 01-.13-.74v-3.51h2.05v-1.8h-2.05v-2.6h-2.2v2.6h-1.24v1.8h1.17v3.8c0 .38.05.76.15 1.13a2.64 2.64 0 00.94 1.47c.2.17.43.3.67.42a4.88 4.88 0 002.7.33V24.5l-.4.03zM481.59 16.9a3.69 3.69 0 00-1.76.45 3.56 3.56 0 00-1.37 1.44h-.03l.03-.62v-1.05h-2.1v9.07h2.19v-4.16c0-.47.05-.87.16-1.2.16-.56.46-1.01.87-1.35.42-.34.91-.5 1.49-.5.52 0 .89.15 1.1.47.2.31.3.77.3 1.37v5.37h2.17v-5.84c0-2.3-1.02-3.44-3.05-3.44M461.51 16.9c-.65 0-1.28.2-1.82.55-.56.36-.96.8-1.21 1.32h-.04c-.37-1.24-1.24-1.86-2.6-1.86-.62-.01-1.23.19-1.74.56-.52.38-.9.82-1.14 1.32h-.04l.04-.62v-1.05h-2.13v9.07h2.21V22.2c0-.47.04-.86.11-1.15.15-.62.41-1.11.79-1.5a1.87 1.87 0 011.91-.48.9.9 0 01.35.25c.1.12.17.26.2.4.05.16.08.33.1.49.02.16.03.35.03.57v5.4h2.2V22.2c0-.5.04-.89.11-1.17.14-.6.4-1.1.78-1.48.37-.38.83-.58 1.37-.58.47 0 .8.16.96.47.17.3.26.75.26 1.34v5.4h2.21v-5.83c0-2.3-.97-3.44-2.9-3.44M353.86 45.39a1.8 1.8 0 01-.91-.44 1.39 1.39 0 01-.32-.5 1.95 1.95 0 01-.13-.74v-3.5h2.06v-1.8h-2.06v-2.6h-2.2v2.6h-1.24v1.8h1.17V44c0 .38.05.77.15 1.14a2.6 2.6 0 00.94 1.47c.2.16.43.3.67.41a4.89 4.89 0 002.7.33v-1.97l-.4.04a3.1 3.1 0 01-.43-.03M425.72 22.46c0 .58-.2 1.1-.6 1.6-.4.5-.89.74-1.45.74-.44 0-.78-.11-1.02-.34-.24-.22-.36-.5-.36-.8 0-.94 1.01-1.4 3.04-1.4h.4v.2zm-1.56-5.22a6.13 6.13 0 00-2.18.38 6.5 6.5 0 00-1.22.6l-.17.11.86 1.58.34-.21a4.55 4.55 0 012.16-.64c1.17 0 1.75.52 1.75 1.56v.13h-.3a12.12 12.12 0 00-2.75.3c-.34.08-.67.2-.98.34-.34.15-.63.33-.86.53a2.38 2.38 0 00-.8 1.83H420c0 .85.3 1.53.9 2.02.61.5 1.34.75 2.2.75.39 0 .75-.06 1.08-.16.33-.1.6-.24.8-.4a4.19 4.19 0 00.8-.85c.07-.1.1-.16.08-.16h.04l-.04.63v.73h2.1v-5.54c0-1.12-.34-2-1-2.6a3.96 3.96 0 00-2.8-.93zM442.5 20.78c.11-.57.35-1.02.72-1.35a2 2 0 011.37-.49c.5 0 .9.16 1.23.49.32.32.48.77.5 1.35h-3.81zm4.25-2.97c-.6-.38-1.3-.57-2.1-.57a4.2 4.2 0 00-3.19 1.3 4.64 4.64 0 00-1.24 3.34c0 .8.18 1.6.56 2.31.38.71.94 1.3 1.64 1.7a5.36 5.36 0 005.38-.2l.45-.3.16-.14-.85-1.58-.11.1-.37.24c-.16.1-.34.19-.53.29a3.32 3.32 0 01-1.5.33c-.68 0-1.27-.2-1.77-.61a2.4 2.4 0 01-.84-1.73h6.02l.05-.84c0-.8-.15-1.5-.44-2.13a3.5 3.5 0 00-1.32-1.51zM415.29 16.9a3.69 3.69 0 00-1.76.45 3.56 3.56 0 00-1.37 1.44h-.03l.03-.62v-1.05h-2.1v9.07h2.19v-4.16c0-.47.05-.87.16-1.2.17-.56.46-1.01.87-1.35.42-.34.91-.5 1.49-.5.53 0 .9.15 1.1.47.2.31.3.77.3 1.37v5.37h2.17v-5.84c0-2.3-1.01-3.44-3.05-3.44M436.16 23c-.12.36-.28.64-.48.83a1.96 1.96 0 01-1.47.56c-.72 0-1.28-.26-1.69-.77-.4-.5-.6-1.16-.6-1.97 0-.77.18-1.38.56-1.83.38-.45.9-.68 1.59-.68.3 0 .6.04.88.12a1.77 1.77 0 011.21 1.2c.12.36.18.79.18 1.28s-.06.91-.18 1.27zm.26-4.86c0 .08 0 .16.02.25h-.05l-.09-.13a3.78 3.78 0 00-.8-.63 4.49 4.49 0 00-4.04.21c-.61.4-1.1.97-1.4 1.62a5.4 5.4 0 00-.45 2.26c0 .84.16 1.6.48 2.29a3.94 3.94 0 003.64 2.27c1.15 0 2-.4 2.55-1.22h.04l-.04.48v.53c0 .75-.24 1.3-.72 1.66-.48.35-1.1.53-1.87.53a7.64 7.64 0 01-2.54-.59l-.68 1.72a7.25 7.25 0 004.68.63c.45-.1.9-.25 1.31-.47a3.51 3.51 0 001.83-2.01c.18-.49.27-1.03.27-1.63v-8.46h-2.14v.69zM306.96 47.4h1.99v-8.95h-1.99zM310.41 21.69a2.86 2.86 0 00-.53-.9 4.5 4.5 0 00-.77-.69c-.3-.2-.6-.38-.91-.53l-.96-.42a42.2 42.2 0 01-.91-.4c-.3-.13-.55-.27-.77-.41a1.8 1.8 0 01-.53-.51c-.13-.2-.2-.41-.2-.65 0-.43.18-.79.53-1.07.36-.28.8-.42 1.32-.42a4.07 4.07 0 012.57.98l.14.11.97-1.85-.14-.13c-.1-.1-.25-.2-.46-.34a4.73 4.73 0 00-1.76-.73c-.42-.1-.85-.14-1.3-.14a4.3 4.3 0 00-2.95 1.04 3.3 3.3 0 00-1.18 2.59 3 3 0 001.16 2.42c.35.27.73.52 1.13.72.4.21.82.4 1.24.58.38.17.75.34 1.13.53.3.15.6.37.83.63.21.24.32.51.32.8 0 .5-.17.87-.52 1.13-.34.26-.76.4-1.27.4a4.48 4.48 0 01-2.49-.86 6.04 6.04 0 01-.57-.47l-1.21 1.7.17.18a8.13 8.13 0 001.38.94 6.23 6.23 0 002.68.6c1.24 0 2.23-.35 2.96-1.06.73-.7 1.1-1.57 1.1-2.6 0-.43-.07-.82-.2-1.17M306.96 36.8h1.99v-2.32h-1.99zM291.13 42.6a2.6 2.6 0 01-.74 1.98c-.49.47-1.15.7-2 .7-.83 0-1.5-.23-1.99-.7a2.59 2.59 0 01-.74-1.96v-8.14h-2.23v8.14c0 1.43.45 2.58 1.37 3.46a5 5 0 003.61 1.32c1.48 0 2.68-.44 3.6-1.32a4.59 4.59 0 001.36-3.46v-8.14h-2.24v8.12zM296.35 26.19v-5.84c0-2.3-.97-3.44-2.9-3.44-.65 0-1.29.18-1.83.54-.55.36-.96.8-1.21 1.32h-.04c-.37-1.24-1.24-1.86-2.59-1.86-.63-.01-1.24.19-1.75.56-.52.38-.9.82-1.14 1.32h-.04l.04-.62v-1.05h-2.13v9.07h2.21V22.2c0-.47.04-.86.11-1.15.15-.62.41-1.11.8-1.5a1.87 1.87 0 011.9-.48c.14.05.26.14.36.25.09.12.16.26.2.4.04.16.08.33.1.49l.02.57v5.4h2.21V22.2c0-.5.04-.89.1-1.17.14-.6.4-1.1.78-1.48.37-.38.83-.58 1.37-.58.47 0 .8.16.97.47.17.3.25.75.25 1.34v5.4h2.21zM301.59 38.12a3.68 3.68 0 00-1.76.44 3.53 3.53 0 00-1.37 1.45h-.03l.03-.63v-1.04h-2.1v9.06h2.19v-4.16a4 4 0 01.16-1.2c.15-.53.45-1 .87-1.34.42-.34.91-.51 1.49-.51.52 0 .89.16 1.1.47.2.32.3.78.3 1.38v5.36h2.17v-5.83c0-2.3-1.02-3.45-3.05-3.45M315.08 44c-.05.15-.1.35-.15.57a127.2 127.2 0 00-.17.78h-.03l-.05-.22a20.24 20.24 0 00-.25-1.13l-1.84-5.55h-2.31l3.2 8.95h2.58l3.17-8.95h-2.32L315.08 44zM342.88 42.92a8.23 8.23 0 00-1.79-.95l-.85-.34a2.34 2.34 0 01-.63-.38c-.17-.14-.25-.3-.25-.45a.66.66 0 01.34-.6c.22-.13.5-.2.81-.2a3.58 3.58 0 012.22.76l.84-1.63-.12-.1a2 2 0 00-.37-.26 4.45 4.45 0 00-1.45-.54c-.35-.07-.72-.1-1.1-.1-1 0-1.83.22-2.48.7-.64.46-.97 1.1-.97 1.9-.01.7.31 1.36.87 1.8.27.21.56.4.86.55.31.15.62.3.94.42.28.1.57.23.85.35.23.1.45.23.63.39.17.15.25.3.25.48 0 .24-.13.47-.35.59-.23.14-.5.21-.84.21a3.82 3.82 0 01-2.47-.97l-1.02 1.55.14.13a7.4 7.4 0 001.15.7 5.36 5.36 0 002.21.46c1.05.01 1.89-.24 2.52-.75a2.35 2.35 0 00.06-3.72M348.24 24.64c-.73 0-1.34-.26-1.84-.78a2.71 2.71 0 01-.76-1.98c0-.8.25-1.47.76-1.99.5-.52 1.11-.78 1.84-.78.7 0 1.36.28 1.83.78.5.52.76 1.19.76 1.99s-.25 1.47-.76 1.98c-.47.5-1.14.79-1.83.78m4.15-.36c.43-.71.65-1.51.65-2.4a4.55 4.55 0 00-2.4-4.05c-.74-.4-1.57-.6-2.42-.6-.84 0-1.67.2-2.4.6a4.48 4.48 0 00-2.4 4.05 4.55 4.55 0 002.4 4.05c.72.4 1.53.59 2.42.59.88 0 1.69-.2 2.42-.59a4.45 4.45 0 001.73-1.65M345.41 47.4h1.99v-8.95h-1.99zM345.41 36.8h1.99v-2.32h-1.99zM320.22 25.08l-.86-1.57-.13.12a7.94 7.94 0 01-.93.61 3.34 3.34 0 01-1.6.4 2.73 2.73 0 01-2.8-2.77 2.62 2.62 0 012.74-2.75 3.43 3.43 0 012.36.96l.97-1.52-.13-.13a6.2 6.2 0 00-1.1-.72 5.71 5.71 0 00-4.83.17c-.75.42-1.32.98-1.71 1.68-.4.7-.6 1.48-.6 2.32a4.69 4.69 0 001.33 3.28c.44.44.97.77 1.55 1a5.48 5.48 0 003.35.2 5.43 5.43 0 001.78-.78 5.27 5.27 0 00.61-.5M336.63 46.24zM322.18 41.67c.1-.58.34-1.03.7-1.36a2 2 0 011.38-.48c.5 0 .9.16 1.23.48.32.32.48.77.5 1.36h-3.81zm4.24-2.98c-.6-.38-1.3-.57-2.1-.57a4.2 4.2 0 00-3.2 1.3 4.64 4.64 0 00-1.23 3.34c0 .8.18 1.6.56 2.32.38.7.94 1.29 1.64 1.69a5.3 5.3 0 005.38-.2l.45-.3.16-.14-.85-1.58-.11.1a7.41 7.41 0 01-.9.53 3.3 3.3 0 01-1.5.34c-.68 0-1.27-.2-1.77-.62-.5-.4-.77-.98-.84-1.72h6.02l.05-.85c0-.8-.15-1.5-.44-2.13a3.52 3.52 0 00-1.32-1.51zM333.67 38.78c-.5.44-.86 1-1.06 1.69h-.04l.04-.64v-1.58h-2.11v9.15h2.19v-3.63c0-.56.06-1.06.2-1.49.12-.43.32-.8.6-1.1.23-.26.52-.48.85-.63.3-.12.62-.19.95-.19.17 0 .34.01.51.04v-2.24l-.4-.04c-.63 0-1.25.23-1.73.66"/>
            </g>
        
</svg>